<svg width="326" height="326" viewBox="0 0 326 326" fill="none" xmlns="http://www.w3.org/2000/svg">
<path d="M115.458 149.417L156.102 190.061C156.161 190.119 156.256 190.119 156.314 190.061L264.875 81.5" stroke="#A6FF00" stroke-width="24"/>
<path d="M257.835 144.267C262.115 165.936 258.846 188.417 248.571 207.969C238.296 227.521 221.636 242.965 201.362 251.73C181.088 260.495 158.424 262.053 137.142 256.144C115.859 250.236 97.2419 237.217 84.3883 219.255C71.5348 201.293 65.2201 179.471 66.4952 157.42C67.7704 135.369 76.5584 114.42 91.3968 98.0597C106.235 81.6989 126.229 70.913 148.051 67.497C169.872 64.0811 192.206 68.2412 211.334 79.2849" stroke="#A6FF00" stroke-width="24" stroke-linecap="round"/>
</svg>
